# xmcd CD database file
#
# Track frame offsets:
#	150
#	35295
#	69288
#	102534
#	128536
#	149695
#	170749
#	197720
#	230768
#	252557
#	281538
#	307653
#
# Disc length: 4465 seconds
#
# Revision: 2
# Processed by: cddbd v1.5.2PL0 Copyright (c) Steve Scherf et al.
# Submitted via: CDex 1.51
#
DISCID=ae116f0c
DTITLE=WILLIE KENT AND HIS GENTS - Chicago Blues Session Volume 30(Live At B.L.U.E.S.)
DYEAR=1993
DGENRE=Chicago Blues
TTITLE0=Mother In Law Blues
TTITLE1=A Man And His Blues
TTITLE2=All My Life
TTITLE3=Looking Good
TTITLE4=Ship Made Of Paper
TTITLE5=Black Night
TTITLE6=I'm Good
TTITLE7=Dirty Work Going On
TTITLE8=Rock Me
TTITLE9=Sadie
TTITLE10=Tin Pan Alley
TTITLE11=If You Got To Love Somebody
EXTD=Wolf Records\n120.876 CD\n YEAR: 1993
EXTT0=
EXTT1=
EXTT2=
EXTT3=
EXTT4=
EXTT5=
EXTT6=
EXTT7=
EXTT8=
EXTT9=
EXTT10=
EXTT11=
PLAYORDER=
